<?xml version="1.0" encoding="UTF-8" standalone="no"?>
<!-- Created with Inkscape (http://www.inkscape.org/) -->

<svg
   xmlns:dc="http://purl.org/dc/elements/1.1/"
   xmlns:cc="http://creativecommons.org/ns#"
   xmlns:rdf="http://www.w3.org/1999/02/22-rdf-syntax-ns#"
   xmlns:svg="http://www.w3.org/2000/svg"
   xmlns="http://www.w3.org/2000/svg"
   xmlns:sodipodi="http://sodipodi.sourceforge.net/DTD/sodipodi-0.dtd"
   xmlns:inkscape="http://www.inkscape.org/namespaces/inkscape"
   width="212.5975"
   height="88.582497"
   id="svg3913"
   version="1.1"
   inkscape:version="0.48.4 r9939"
   sodipodi:docname="New document 5">
  <defs
     id="defs3915" />
  <sodipodi:namedview
     id="base"
     pagecolor="#ffffff"
     bordercolor="#666666"
     borderopacity="1.0"
     inkscape:pageopacity="0.0"
     inkscape:pageshadow="2"
     inkscape:zoom="3.959798"
     inkscape:cx="107.06479"
     inkscape:cy="38.728546"
     inkscape:document-units="px"
     inkscape:current-layer="layer1"
     showgrid="false"
     fit-margin-top="0"
     fit-margin-left="0"
     fit-margin-right="0"
     fit-margin-bottom="0"
     inkscape:window-width="1920"
     inkscape:window-height="1017"
     inkscape:window-x="-8"
     inkscape:window-y="-8"
     inkscape:window-maximized="1" />
  <metadata
     id="metadata3918">
    <rdf:RDF>
      <cc:Work
         rdf:about="">
        <dc:format>image/svg+xml</dc:format>
        <dc:type
           rdf:resource="http://purl.org/dc/dcmitype/StillImage" />
        <dc:title></dc:title>
      </cc:Work>
    </rdf:RDF>
  </metadata>
  <g
     inkscape:label="Layer 1"
     inkscape:groupmode="layer"
     id="layer1"
     transform="translate(-259.41554,-436.64237)">
    <g
       transform="matrix(1.25,0,0,-1.25,259.41554,525.22487)"
       inkscape:label="ink_ext_XXXXXX"
       id="g3929">
      <g
         transform="scale(0.1,0.1)"
         id="g3931">
        <path
           id="path3933"
           style="fill:#ffffff;fill-opacity:1;fill-rule:nonzero;stroke:none"
           d="M 1700.78,0 0,0 l 0,708.66 1700.78,0 0,-708.66"
           inkscape:connector-curvature="0" />
        <path
           id="path3935"
           style="fill:#fbc707;fill-opacity:1;fill-rule:nonzero;stroke:none"
           d="m 346.129,284.746 c 3.398,-1.094 6.73,-1.973 10.059,-2.676 -29.071,-24.89 -86.711,-35.41 -149.395,-23.828 -0.734,0.156 -1.449,0.313 -2.203,0.442 8.082,10.132 20.758,20.211 36.598,28.679 40.66,-15.05 78.167,-16.64 104.941,-2.617"
           inkscape:connector-curvature="0" />
        <path
           id="path3937"
           style="fill:#f68712;fill-opacity:1;fill-rule:nonzero;stroke:none"
           d="m 346.129,284.746 c -26.774,-14.023 -64.281,-12.433 -104.941,2.617 7.285,3.926 15.242,7.5 23.73,10.575 12.418,4.503 24.656,7.5 36.074,9.042 15.043,-10.195 30.438,-17.695 45.137,-22.234"
           inkscape:connector-curvature="0" />
        <path
           id="path3939"
           style="fill:#da1b36;fill-opacity:1;fill-rule:nonzero;stroke:none"
           d="m 290.574,543.551 c 23.364,-23.563 42.793,-48.649 57.817,-73.676 -38.235,26.645 -78.883,35.969 -105.68,23.723 -7.066,35.8 -5.707,67.707 3.418,88.75 15.164,-11.391 30.109,-24.348 44.445,-38.797"
           inkscape:connector-curvature="0" />
        <path
           id="path3941"
           style="fill:#f1471d;fill-opacity:1;fill-rule:nonzero;stroke:none"
           d="m 268.344,334.031 c 10.41,-10.445 21.426,-19.488 32.648,-27.051 -11.418,-1.542 -23.656,-4.539 -36.074,-9.042 -8.488,-3.075 -16.445,-6.649 -23.73,-10.575 -40.907,15.117 -84.989,43.739 -124.543,83.621 -9.825,9.922 -18.9302,20.102 -27.3247,30.434 25.8987,21.199 72.9647,31.543 125.9767,25.945 5.086,-29.66 23.59,-63.828 53.047,-93.332"
           inkscape:connector-curvature="0" />
        <path
           id="path3943"
           style="fill:#113e74;fill-opacity:1;fill-rule:nonzero;stroke:none"
           d="m 456.695,278.895 c -10.586,0 -21.148,0.871 -30.011,2.558 l 0.859,22.863 c 8.848,-2.832 20.293,-4.843 31.148,-4.843 18.864,0 31.715,8.562 31.715,21.711 0,31.726 -66.008,12.293 -66.008,62.3 0,24.004 19.735,42.579 56.872,42.579 8.578,0 18.585,-1.137 27.136,-2.86 l -0.554,-21.43 c -8.872,2.86 -19.157,4.579 -28.582,4.579 -18.872,0 -28.293,-8.008 -28.293,-20.301 0,-31.149 66.296,-14.274 66.296,-62.02 0,-25.703 -22.863,-45.136 -60.578,-45.136"
           inkscape:connector-curvature="0" />
        <path
           id="path3945"
           style="fill:#113e74;fill-opacity:1;fill-rule:nonzero;stroke:none"
           d="m 576.148,446.938 c -9.433,0 -17.16,7.414 -17.16,16.867 0,9.129 7.727,16.554 17.16,16.554 9.418,0 17.137,-7.132 17.137,-16.554 0,-9.157 -7.719,-16.867 -17.137,-16.867 z m 12.868,-165.485 -25.739,0 0,122.031 c -6.867,1.149 -16.566,2.297 -24.875,2.868 l 0,15.132 c 14.309,1.719 34.008,2.871 50.614,2 l 0,-142.031"
           inkscape:connector-curvature="0" />
        <path
           id="path3947"
           style="fill:#113e74;fill-opacity:1;fill-rule:nonzero;stroke:none"
           d="m 666.734,389.773 0.579,0 c 5.984,19.719 20.562,39.438 48.863,36.29 l -1.16,-25.145 C 685.02,406.063 670.73,384.059 670.73,338.613 l 0,-57.16 -25.718,0 0,122.031 c -6.867,1.149 -16.574,2.297 -24.871,2.868 l 0,15.132 c 14.293,1.719 34.007,2.871 49.722,2 0,-8.839 -0.843,-21.992 -3.129,-33.711"
           inkscape:connector-curvature="0" />
        <path
           id="path3949"
           style="fill:#113e74;fill-opacity:1;fill-rule:nonzero;stroke:none"
           d="m 816.477,400.918 c -30.012,5.145 -44.289,-16.859 -44.289,-62.305 l 0,-57.16 -25.739,0 0,142.031 24.867,0 c 0,-8.839 -0.843,-21.992 -3.132,-33.711 l 0.554,0 c 6.012,19.719 20.586,39.438 48.875,36.29 l -1.136,-25.145"
           inkscape:connector-curvature="0" />
        <path
           id="path3951"
           style="fill:#113e74;fill-opacity:1;fill-rule:nonzero;stroke:none"
           d="m 842.195,281.453 0,142.031 25.735,0 0,-142.031 -25.735,0 z m 12.856,165.485 c -9.422,0 -17.156,7.414 -17.156,16.867 0,9.129 7.734,16.554 17.156,16.554 9.429,0 17.144,-7.132 17.144,-16.554 0,-9.157 -7.715,-16.867 -17.144,-16.867"
           inkscape:connector-curvature="0" />
        <path
           id="path3953"
           style="fill:#113e74;fill-opacity:1;fill-rule:nonzero;stroke:none"
           d="m 933.086,278.895 c -10.598,0 -21.152,0.871 -30.027,2.558 l 0.867,22.863 c 8.84,-2.832 20.293,-4.843 31.14,-4.843 18.872,0 31.731,8.562 31.731,21.711 0,31.726 -66.027,12.293 -66.027,62.3 0,24.004 19.738,42.579 56.875,42.579 8.566,0 18.578,-1.137 27.16,-2.86 l -0.575,-21.43 c -8.871,2.86 -19.164,4.579 -28.585,4.579 -18.868,0 -28.29,-8.008 -28.29,-20.301 0,-31.149 66.29,-14.274 66.29,-62.02 0,-25.703 -22.864,-45.136 -60.559,-45.136"
           inkscape:connector-curvature="0" />
        <path
           id="path3955"
           style="fill:#113e74;fill-opacity:1;fill-rule:nonzero;stroke:none"
           d="m 462.816,143.895 c -3.507,0.832 -6.937,1.195 -10.175,1.195 -10.653,0 -17.5,-6.289 -17.5,-21.195 0,-11.2 3.882,-18.141 12.41,-18.141 10.457,0 15.265,12.223 15.265,20.547 l 0,17.594 z M 462.543,102.5 c 0,3.066 0.273,8.074 0.93,11.035 l -0.192,0.078 c -2.593,-7.207 -8.793,-11.836 -16.293,-11.836 -11.476,0 -17.039,8.223 -17.039,21.758 0,16.746 9.36,25.449 23.239,25.449 3.062,0 6.023,-0.183 9.628,-0.546 l 0,21.652 4.911,0 0,-67.59 -5.184,0"
           inkscape:connector-curvature="0" />
        <path
           id="path3957"
           style="fill:#113e74;fill-opacity:1;fill-rule:nonzero;stroke:none"
           d="m 504.059,144.355 c -10.836,1.668 -15.93,-7.031 -15.93,-23.613 l 0,-18.242 -4.906,0 0,46.023 5.09,0 c 0,-3.328 -0.368,-8.242 -1.204,-12.5 l 0.192,-0.085 c 1.664,7.023 6.566,14.539 16.933,13.234 l -0.175,-4.817"
           inkscape:connector-curvature="0" />
        <path
           id="path3959"
           style="fill:#113e74;fill-opacity:1;fill-rule:nonzero;stroke:none"
           d="m 514.137,102.5 0,46.023 4.906,0 0,-46.023 -4.906,0 z m 2.5,57.41 c -2.035,0 -3.707,1.582 -3.707,3.703 0,2.039 1.672,3.7 3.707,3.7 2.035,0 3.699,-1.571 3.699,-3.7 0,-2.043 -1.664,-3.703 -3.699,-3.703"
           inkscape:connector-curvature="0" />
        <path
           id="path3961"
           style="fill:#113e74;fill-opacity:1;fill-rule:nonzero;stroke:none"
           d="m 551.086,102.5 -5.191,0 -17.582,46.023 5.734,0 12.129,-33.894 c 0.926,-2.676 1.668,-4.805 2.41,-7.305 l 0.09,0 c 0.734,2.324 1.566,4.719 2.41,7.039 l 12.488,34.16 5.469,0 -17.957,-46.023"
           inkscape:connector-curvature="0" />
        <path
           id="path3963"
           style="fill:#113e74;fill-opacity:1;fill-rule:nonzero;stroke:none"
           d="m 578.305,102.5 0,46.023 4.91,0 0,-46.023 -4.91,0 z m 2.5,57.41 c -2.035,0 -3.703,1.582 -3.703,3.703 0,2.039 1.668,3.7 3.703,3.7 2.043,0 3.707,-1.571 3.707,-3.7 0,-2.043 -1.664,-3.703 -3.707,-3.703"
           inkscape:connector-curvature="0" />
        <path
           id="path3965"
           style="fill:#113e74;fill-opacity:1;fill-rule:nonzero;stroke:none"
           d="m 629.063,102.5 0,29.91 c 0,8.156 -2.215,12.871 -9.907,12.871 -9.168,0 -15.461,-8.699 -15.461,-20.828 l 0,-21.953 -4.902,0 0,46.023 5.094,0 c 0,-3.433 -0.282,-8.152 -0.836,-11.113 l 0.179,-0.086 c 2.594,7.219 8.618,11.934 16.86,11.934 10.637,0 13.887,-6.563 13.887,-14.805 l 0,-31.953 -4.914,0"
           inkscape:connector-curvature="0" />
        <path
           id="path3967"
           style="fill:#113e74;fill-opacity:1;fill-rule:nonzero;stroke:none"
           d="m 664.922,145.281 c -8.434,0 -13.242,-5.457 -13.242,-12.5 0,-7.781 4.629,-12.129 12.773,-12.129 7.969,0 12.957,4.453 12.957,12.219 0,7.695 -4.527,12.41 -12.488,12.41 z m 5.551,-41.746 -9.907,0.36 c -1.015,0 -2.308,0 -3.242,0.097 -4.531,-2.957 -7.5,-6.6678 -7.5,-11.0154 0,-6.6602 6.485,-10.3711 14.821,-10.3711 11.109,0 17.308,5 17.308,11.8476 0,5.5669 -3.699,8.7889 -11.48,9.0819 z m -6.758,-25.0897 c -11.391,0 -18.985,5.0899 -18.985,13.8008 0,5.9961 3.801,10.4489 8.336,13.1369 -2.871,1.109 -4.628,3.687 -4.628,6.66 0,2.957 1.757,5.652 4.82,7.32 -4.27,2.59 -6.766,6.75 -6.766,12.871 0,9.055 6.946,17.024 18.801,17.024 2.129,0 3.422,-0.274 5.551,-0.735 l 15.64,0 0,-3.894 -8.972,0 c 3.14,-2.395 5.09,-6.387 5.09,-11.094 0,-9.172 -6.207,-16.863 -19.079,-16.863 -2.406,0 -4.253,0.281 -6.199,0.933 -2.5,-1.113 -3.793,-2.976 -3.793,-4.824 0,-2.957 2.864,-4.07 8.699,-4.246 l 9.629,-0.383 c 10,-0.371 15.282,-5.371 15.282,-13.0465 0,-9.6289 -9.821,-16.6602 -23.426,-16.6602"
           inkscape:connector-curvature="0" />
        <path
           id="path3969"
           style="fill:#113e74;fill-opacity:1;fill-rule:nonzero;stroke:none"
           d="m 719.535,102.5 0,46.023 4.903,0 0,-46.023 -4.903,0 z m 2.5,57.41 c -2.035,0 -3.699,1.582 -3.699,3.703 0,2.039 1.664,3.7 3.699,3.7 2.035,0 3.703,-1.571 3.703,-3.7 0,-2.043 -1.668,-3.703 -3.703,-3.703"
           inkscape:connector-curvature="0" />
        <path
           id="path3971"
           style="fill:#113e74;fill-opacity:1;fill-rule:nonzero;stroke:none"
           d="m 770.297,102.5 0,29.91 c 0,8.156 -2.227,12.871 -9.906,12.871 -9.164,0 -15.457,-8.699 -15.457,-20.828 l 0,-21.953 -4.914,0 0,46.023 5.093,0 c 0,-3.433 -0.273,-8.152 -0.836,-11.113 l 0.192,-0.086 c 2.594,7.219 8.601,11.934 16.844,11.934 10.652,0 13.886,-6.563 13.886,-14.805 l 0,-31.953 -4.902,0"
           inkscape:connector-curvature="0" />
        <path
           id="path3973"
           style="fill:#113e74;fill-opacity:1;fill-rule:nonzero;stroke:none"
           d="m 819.984,143.895 c -3.507,0.832 -6.937,1.195 -10.175,1.195 -10.649,0 -17.5,-6.289 -17.5,-21.195 0,-11.2 3.886,-18.141 12.41,-18.141 10.461,0 15.265,12.223 15.265,20.547 l 0,17.594 z M 819.719,102.5 c 0,3.066 0.265,8.074 0.922,11.035 l -0.192,0.078 c -2.59,-7.207 -8.793,-11.836 -16.289,-11.836 -11.48,0 -17.031,8.223 -17.031,21.758 0,16.746 9.348,25.449 23.23,25.449 3.059,0 6.024,-0.183 9.625,-0.546 l 0,21.652 4.911,0 0,-67.59 -5.176,0"
           inkscape:connector-curvature="0" />
        <path
           id="path3975"
           style="fill:#113e74;fill-opacity:1;fill-rule:nonzero;stroke:none"
           d="m 870.43,102.5 c 0,3.438 0.285,8.152 0.84,11.113 l -0.176,0.098 c -2.61,-7.219 -8.621,-11.934 -16.86,-11.934 -10.644,0 -13.882,6.563 -13.882,14.805 l 0,31.941 4.906,0 0,-29.91 c 0,-8.136 2.219,-12.859 9.898,-12.859 9.18,0 15.457,8.699 15.457,20.828 l 0,21.941 4.907,0 0,-46.023 -5.09,0"
           inkscape:connector-curvature="0" />
        <path
           id="path3977"
           style="fill:#113e74;fill-opacity:1;fill-rule:nonzero;stroke:none"
           d="m 897.93,101.777 c -3.528,0 -7.5,0.352 -10.285,1.2 l 0.839,4.906 c 2.954,-1.106 7.036,-1.758 10.559,-1.758 7.227,0 12.5,3.418 12.5,8.98 0,12.5 -24.07,4.543 -24.07,21.196 0,7.5 6.004,12.957 17.129,12.957 2.957,0 6.57,-0.457 9.336,-1.106 l -0.747,-4.351 c -2.871,0.926 -6.187,1.48 -9.421,1.48 -7.598,0 -11.297,-3.25 -11.297,-8.328 0,-12.59 24.07,-4.824 24.07,-21.015 0,-7.696 -6.855,-14.161 -18.613,-14.161"
           inkscape:connector-curvature="0" />
        <path
           id="path3979"
           style="fill:#113e74;fill-opacity:1;fill-rule:nonzero;stroke:none"
           d="m 944.238,101.863 c -8.8,0 -11.3,4.172 -11.3,13.242 l 0,29.524 -10.918,0 0,3.894 10.918,0 0,15.735 4.914,1.394 0,-17.129 14.543,0 0,-3.894 -14.543,0 0,-26.746 c 0,-9.27 1.582,-11.582 7.586,-11.582 2.414,0 4.738,0.371 6.582,0.847 l 0.746,-4.367 c -2.414,-0.547 -5.746,-0.918 -8.528,-0.918"
           inkscape:connector-curvature="0" />
        <path
           id="path3981"
           style="fill:#113e74;fill-opacity:1;fill-rule:nonzero;stroke:none"
           d="m 983.895,144.355 c -10.836,1.668 -15.926,-7.031 -15.926,-23.613 l 0,-18.242 -4.91,0 0,46.023 5.093,0 c 0,-3.328 -0.359,-8.242 -1.211,-12.5 l 0.2,-0.085 c 1.668,7.023 6.57,14.539 16.929,13.234 l -0.175,-4.817"
           inkscape:connector-curvature="0" />
        <path
           id="path3983"
           style="fill:#113e74;fill-opacity:1;fill-rule:nonzero;stroke:none"
           d="m 1010.65,97.4219 c -5.17,-13.7969 -10.26,-18.9766 -20.357,-18.9766 -1.398,0 -3.059,0.168 -4.355,0.461 l 0.566,4.6289 c 1.289,-0.3711 3.601,-0.6524 5.176,-0.6524 5.742,0 9.63,2.8711 13.88,13.6992 l 2.33,5.918 -17.87,46.023 5.832,0 11.008,-29.988 c 1.58,-4.363 2.5,-7.129 3.53,-10.293 l 0.09,0 c 0.73,2.5 2.67,8.059 4.71,13.801 l 9.36,26.48 5.46,0 -19.36,-51.1011"
           inkscape:connector-curvature="0" />
        <path
           id="path3985"
           style="fill:#113e74;fill-opacity:1;fill-rule:nonzero;stroke:none"
           d="m 1080.84,145.281 c -10.48,0 -15.28,-12.215 -15.28,-20.547 l 0,-17.41 c 3.04,-1.023 6.29,-1.386 10.17,-1.386 10.66,0 17.5,6.296 17.5,21.191 0,11.211 -3.88,18.152 -12.39,18.152 z m -5.65,-43.238 c -6.02,0 -10,0.457 -14.55,1.582 l 0,66.465 4.92,0 0,-24.809 c 0,-2.5 -0.29,-5.918 -0.83,-8.238 l 0.17,-0.09 c 2.7,7.774 8.99,12.305 16.49,12.305 10.74,0 17.03,-7.227 17.03,-21.758 0,-16.758 -9.36,-25.457 -23.23,-25.457"
           inkscape:connector-curvature="0" />
        <path
           id="path3987"
           style="fill:#113e74;fill-opacity:1;fill-rule:nonzero;stroke:none"
           d="m 1123.64,97.4219 c -5.19,-13.7969 -10.26,-18.9766 -20.37,-18.9766 -1.38,0 -3.05,0.168 -4.34,0.461 l 0.55,4.6289 c 1.29,-0.3711 3.62,-0.6524 5.19,-0.6524 5.73,0 9.63,2.8711 13.88,13.6992 l 2.33,5.918 -17.87,46.023 5.81,0 11.03,-29.988 c 1.58,-4.363 2.5,-7.129 3.51,-10.293 l 0.11,0 c 0.72,2.5 2.67,8.059 4.71,13.801 l 9.35,26.48 5.46,0 -19.35,-51.1011"
           inkscape:connector-curvature="0" />
        <path
           id="path3989"
           style="fill:#113e74;fill-opacity:1;fill-rule:nonzero;stroke:none"
           d="m 1186.6,101.863 c -8.8,0 -11.3,4.172 -11.3,13.242 l 0,29.524 -10.93,0 0,3.894 10.93,0 0,15.735 4.91,1.394 0,-17.129 14.53,0 0,-3.894 -14.53,0 0,-26.746 c 0,-9.27 1.56,-11.582 7.59,-11.582 2.41,0 4.72,0.371 6.57,0.847 l 0.74,-4.367 c -2.4,-0.547 -5.74,-0.918 -8.51,-0.918"
           inkscape:connector-curvature="0" />
        <path
           id="path3991"
           style="fill:#113e74;fill-opacity:1;fill-rule:nonzero;stroke:none"
           d="m 1219.81,145.461 c -7.12,0 -12.3,-5.18 -13.6,-13.508 l 26.02,0 c 0.19,8.047 -4.54,13.508 -12.42,13.508 z m 17.68,-17.484 -31.64,0 c -0.66,-15.567 5.26,-21.852 16.29,-21.852 4.54,0 9.17,0.918 12.96,2.691 l 1.11,-4.273 c -4.27,-1.762 -9.44,-2.766 -15.18,-2.766 -13.34,0 -20.47,7.5 -20.47,23.594 0,13.699 7.32,23.887 19.63,23.887 12.41,0 17.41,-8.606 17.41,-18.223 0,-0.558 0,-1.504 -0.11,-3.058"
           inkscape:connector-curvature="0" />
        <path
           id="path3993"
           style="fill:#113e74;fill-opacity:1;fill-rule:nonzero;stroke:none"
           d="m 1265.8,101.953 c -9.27,0 -19.53,3.801 -19.53,21.942 0,15.363 7.58,25.175 21.29,25.175 4.8,0 9.16,-0.828 12.5,-2.215 l -1.21,-4.074 c -3.25,1.289 -7.79,2.414 -12.32,2.414 -9.63,0 -15.09,-8.523 -15.09,-20.09 0,-10.195 2.96,-18.98 15.37,-18.98 4.54,0 8.79,0.918 12.41,2.586 l 1.1,-3.977 c -4.06,-1.757 -9.43,-2.781 -14.52,-2.781"
           inkscape:connector-curvature="0" />
        <path
           id="path3995"
           style="fill:#113e74;fill-opacity:1;fill-rule:nonzero;stroke:none"
           d="m 1320.64,102.5 0,29.91 c 0,8.156 -2.23,12.871 -9.91,12.871 -9.17,0 -15.47,-8.699 -15.47,-20.828 l 0,-21.953 -4.9,0 0,67.59 4.9,0 0,-23.789 c 0,-3.149 -0.16,-6.848 -0.74,-9.067 l 0.21,-0.105 c 2.66,7.414 8.7,12.129 16.92,12.129 10.65,0 13.9,-6.563 13.9,-14.805 l 0,-31.953 -4.91,0"
           inkscape:connector-curvature="0" />
        <path
           id="path3997"
           style="fill:#113e74;fill-opacity:1;fill-rule:nonzero;stroke:none"
           d="m 1371.27,102.5 0,29.91 c 0,8.156 -2.22,12.871 -9.91,12.871 -9.16,0 -15.47,-8.699 -15.47,-20.828 l 0,-21.953 -4.9,0 0,46.023 5.1,0 c 0,-3.433 -0.28,-8.152 -0.84,-11.113 l 0.19,-0.086 c 2.59,7.219 8.61,11.934 16.85,11.934 10.64,0 13.88,-6.563 13.88,-14.805 l 0,-31.953 -4.9,0"
           inkscape:connector-curvature="0" />
        <path
           id="path3999"
           style="fill:#113e74;fill-opacity:1;fill-rule:nonzero;stroke:none"
           d="m 1408.65,145.281 c -7.96,0 -15.55,-6.023 -15.55,-19.441 0,-12.688 5.75,-20 15.65,-20 7.86,0 15.26,5.937 15.26,20.098 0,12.039 -5.26,19.343 -15.36,19.343 z m -0.93,-43.504 c -12.03,0 -19.7,7.676 -19.7,23.7 0,12.675 7.49,23.781 21.29,23.781 10.37,0 19.8,-5.723 19.8,-23.047 0,-13.34 -7.86,-24.434 -21.39,-24.434"
           inkscape:connector-curvature="0" />
        <path
           id="path4001"
           style="fill:#113e74;fill-opacity:1;fill-rule:nonzero;stroke:none"
           d="m 1441.27,102.5 0,67.59 4.91,0 0,-67.59 -4.91,0"
           inkscape:connector-curvature="0" />
        <path
           id="path4003"
           style="fill:#113e74;fill-opacity:1;fill-rule:nonzero;stroke:none"
           d="m 1478.77,145.281 c -7.97,0 -15.55,-6.023 -15.55,-19.441 0,-12.688 5.73,-20 15.64,-20 7.87,0 15.28,5.937 15.28,20.098 0,12.039 -5.28,19.343 -15.37,19.343 z m -0.93,-43.504 c -12.03,0 -19.72,7.676 -19.72,23.7 0,12.675 7.5,23.781 21.28,23.781 10.38,0 19.83,-5.723 19.83,-23.047 0,-13.34 -7.88,-24.434 -21.39,-24.434"
           inkscape:connector-curvature="0" />
        <path
           id="path4005"
           style="fill:#113e74;fill-opacity:1;fill-rule:nonzero;stroke:none"
           d="m 1526.85,145.281 c -8.41,0 -13.24,-5.457 -13.24,-12.5 0,-7.781 4.64,-12.129 12.78,-12.129 7.96,0 12.96,4.453 12.96,12.219 0,7.695 -4.54,12.41 -12.5,12.41 z m 5.57,-41.746 -9.91,0.36 c -1.03,0 -2.32,0 -3.24,0.097 -4.54,-2.957 -7.5,-6.6678 -7.5,-11.0154 0,-6.6602 6.48,-10.3711 14.8,-10.3711 11.12,0 17.32,5 17.32,11.8476 0,5.5669 -3.7,8.7889 -11.47,9.0819 z m -6.77,-25.0897 c -11.38,0 -18.97,5.0899 -18.97,13.8008 0,5.9961 3.79,10.4489 8.33,13.1369 -2.87,1.109 -4.62,3.687 -4.62,6.66 0,2.957 1.75,5.652 4.8,7.32 -4.25,2.59 -6.75,6.75 -6.75,12.871 0,9.055 6.95,17.024 18.79,17.024 2.12,0 3.42,-0.274 5.55,-0.735 l 15.66,0 0,-3.894 -9,0 c 3.16,-2.395 5.11,-6.387 5.11,-11.094 0,-9.172 -6.21,-16.863 -19.08,-16.863 -2.41,0 -4.26,0.281 -6.2,0.933 -2.5,-1.113 -3.8,-2.976 -3.8,-4.824 0,-2.957 2.87,-4.07 8.71,-4.246 l 9.63,-0.383 c 10,-0.371 15.26,-5.371 15.26,-13.0465 0,-9.6289 -9.81,-16.6602 -23.42,-16.6602"
           inkscape:connector-curvature="0" />
        <path
           id="path4007"
           style="fill:#113e74;fill-opacity:1;fill-rule:nonzero;stroke:none"
           d="m 1577.88,97.4219 c -5.19,-13.7969 -10.28,-18.9766 -20.36,-18.9766 -1.41,0 -3.06,0.168 -4.37,0.461 l 0.56,4.6289 c 1.31,-0.3711 3.6,-0.6524 5.19,-0.6524 5.74,0 9.63,2.8711 13.88,13.6992 l 2.32,5.918 -17.86,46.023 5.82,0 11.01,-29.988 c 1.58,-4.363 2.5,-7.129 3.53,-10.293 l 0.09,0 c 0.75,2.5 2.69,8.059 4.73,13.801 l 9.35,26.48 5.46,0 -19.35,-51.1011"
           inkscape:connector-curvature="0" />
      </g>
    </g>
  </g>
</svg>
